<svg width="101" height="18" viewBox="0 0 101 18" fill="none" xmlns="http://www.w3.org/2000/svg">
<path d="M18.184 0.199999V17H16.48V3.56L9.88 14.864H9.04L2.44 3.632V17H0.736V0.199999H2.2L9.496 12.656L16.72 0.199999H18.184ZM29.4179 11.192V17H27.6659V11.192L20.9459 0.199999H22.8419L28.6019 9.632L34.3619 0.199999H36.1379L29.4179 11.192ZM49.1247 8.336C50.2287 8.576 51.0767 9.056 51.6687 9.776C52.2767 10.48 52.5807 11.392 52.5807 12.512C52.5807 13.952 52.0447 15.064 50.9727 15.848C49.9167 16.616 48.3487 17 46.2687 17H38.5407V0.199999H45.7887C47.6607 0.199999 49.1087 0.575999 50.1327 1.328C51.1727 2.08 51.6927 3.144 51.6927 4.52C51.6927 5.448 51.4607 6.24 50.9967 6.896C50.5487 7.536 49.9247 8.016 49.1247 8.336ZM40.3167 1.664V7.76H45.6687C47.0287 7.76 48.0767 7.504 48.8127 6.992C49.5487 6.464 49.9167 5.704 49.9167 4.712C49.9167 3.72 49.5487 2.968 48.8127 2.456C48.0767 1.928 47.0287 1.664 45.6687 1.664H40.3167ZM46.2447 15.536C47.7487 15.536 48.8847 15.28 49.6527 14.768C50.4207 14.256 50.8047 13.456 50.8047 12.368C50.8047 10.272 49.2847 9.224 46.2447 9.224H40.3167V15.536H46.2447ZM63.9784 17.144C62.3144 17.144 60.8024 16.776 59.4424 16.04C58.0984 15.288 57.0424 14.264 56.2744 12.968C55.5224 11.672 55.1464 10.216 55.1464 8.6C55.1464 6.984 55.5224 5.528 56.2744 4.232C57.0424 2.936 58.0984 1.92 59.4424 1.184C60.8024 0.431999 62.3144 0.0559993 63.9784 0.0559993C65.6424 0.0559993 67.1384 0.423999 68.4664 1.16C69.8104 1.896 70.8664 2.92 71.6344 4.232C72.4024 5.528 72.7864 6.984 72.7864 8.6C72.7864 10.216 72.4024 11.68 71.6344 12.992C70.8664 14.288 69.8104 15.304 68.4664 16.04C67.1384 16.776 65.6424 17.144 63.9784 17.144ZM63.9784 15.56C65.3064 15.56 66.5064 15.264 67.5784 14.672C68.6504 14.064 69.4904 13.232 70.0984 12.176C70.7064 11.104 71.0104 9.912 71.0104 8.6C71.0104 7.288 70.7064 6.104 70.0984 5.048C69.4904 3.976 68.6504 3.144 67.5784 2.552C66.5064 1.944 65.3064 1.64 63.9784 1.64C62.6504 1.64 61.4424 1.944 60.3544 2.552C59.2824 3.144 58.4344 3.976 57.8104 5.048C57.2024 6.104 56.8984 7.288 56.8984 8.6C56.8984 9.912 57.2024 11.104 57.8104 12.176C58.4344 13.232 59.2824 14.064 60.3544 14.672C61.4424 15.264 62.6504 15.56 63.9784 15.56ZM79.7969 1.736H73.8929V0.199999H87.4769V1.736H81.5729V17H79.7969V1.736ZM94.6883 17.144C93.4403 17.144 92.2403 16.944 91.0883 16.544C89.9523 16.144 89.0723 15.616 88.4483 14.96L89.1443 13.592C89.7523 14.2 90.5603 14.696 91.5683 15.08C92.5763 15.448 93.6163 15.632 94.6883 15.632C96.1923 15.632 97.3203 15.36 98.0723 14.816C98.8243 14.256 99.2003 13.536 99.2003 12.656C99.2003 11.984 98.9923 11.448 98.5763 11.048C98.1763 10.648 97.6803 10.344 97.0883 10.136C96.4963 9.912 95.6723 9.672 94.6163 9.416C93.3523 9.096 92.3443 8.792 91.5923 8.504C90.8403 8.2 90.1923 7.744 89.6483 7.136C89.1203 6.528 88.8563 5.704 88.8563 4.664C88.8563 3.816 89.0803 3.048 89.5283 2.36C89.9763 1.656 90.6643 1.096 91.5923 0.68C92.5203 0.263999 93.6723 0.0559993 95.0483 0.0559993C96.0083 0.0559993 96.9443 0.191999 97.8563 0.464C98.7843 0.719999 99.5843 1.08 100.256 1.544L99.6563 2.96C98.9523 2.496 98.2003 2.152 97.4003 1.928C96.6003 1.688 95.8163 1.568 95.0483 1.568C93.5763 1.568 92.4643 1.856 91.7123 2.432C90.9763 2.992 90.6083 3.72 90.6083 4.616C90.6083 5.288 90.8083 5.832 91.2083 6.248C91.6243 6.648 92.1363 6.96 92.7443 7.184C93.3683 7.392 94.2003 7.624 95.2403 7.88C96.4723 8.184 97.4643 8.488 98.2163 8.792C98.9843 9.08 99.6323 9.528 100.16 10.136C100.688 10.728 100.952 11.536 100.952 12.56C100.952 13.408 100.72 14.184 100.256 14.888C99.8083 15.576 99.1123 16.128 98.1683 16.544C97.2243 16.944 96.0643 17.144 94.6883 17.144Z" fill="white"/>
</svg>
